PathFileType	4	(X/Y/Z)	./resultDataOpenSim/trcMotMarkerGrf/sub10/qtm-02-01.trc
DataRate	CameraRate	NumFrames	NumMarkers	Units	OrigDataRate	OrigDataStartFrame	OrigNumFrames
250.000000	250.000000	8	24	m	250.000000	346	461
Frame#	Time	L.Toe.Tip			R.Toe.Tip			L.Ankle.Lat			R.Ankle.Lat			L.Ankle.Med			R.Ankle.Med			L.Heel			R.Heel			L.Knee.Lat			R.Knee.Lat			L.Knee.Med			R.Knee.Med			L.Thigh.Upper			R.Thigh.Upper			L.ASIS			R.ASIS			V.Sacral			L.Acromium			R.Acromium			C7			L.Elbow			R.Elbow			L.Wrist.Lat			R.Wrist.Lat
		X1	Y1	Z1	X2	Y2	Z2	X3	Y3	Z3	X4	Y4	Z4	X5	Y5	Z5	X6	Y6	Z6	X7	Y7	Z7	X8	Y8	Z8	X9	Y9	Z9	X10	Y10	Z10	X11	Y11	Z11	X12	Y12	Z12	X13	Y13	Z13	X14	Y14	Z14	X15	Y15	Z15	X16	Y16	Z16	X17	Y17	Z17	X18	Y18	Z18	X19	Y19	Z19	X20	Y20	Z20	X21	Y21	Z21	X22	Y22	Z22	X23	Y23	Z23	X24	Y24	Z24

346	1.38	0.47174182	0.092391527	-0.11616768	0.95052358	0.038747278	0.038720287	0.44551974	0.22721012	-0.13222614	0.80879464	0.05392795	0.084866148	0.47934311	0.22084381	-0.054172201	0.82476663	0.081354739	0.00033124828	0.39807495	0.26558613	-0.077750547	0.75634951	0.031007619	0.042201952	0.7570797	0.43314685	-0.17497211	0.86612145	0.45309565	0.1150709	0.78911235	0.39398074	-0.059904082	0.85612959	0.45843586	-0.014186955	0.72694585	0.81008481	-0.19469759	0.82485393	0.87110579	0.17042218	0.79660097	0.92526388	-0.16299452	0.86790968	0.95811184	0.072497839	0.64100724	0.9498037	0.012458484	0.72236198	1.415444	-0.18498341	0.7470975	1.4092073	0.1388853	0.64778837	1.4318914	-0.020939496	0.71929284	1.0688518	-0.23700282	0.65354833	1.0798931	0.19160608	0.92638589	0.9303856	-0.2482834	0.72386155	0.8703763	0.29174114
347	1.384	0.48848837	0.092501152	-0.11552137	0.95051674	0.038756258	0.038760533	0.45952224	0.2266095	-0.13164051	0.80884579	0.054082496	0.08480689	0.49315801	0.22096116	-0.05338374	0.82483127	0.081524469	0.00034491832	0.41088583	0.26425798	-0.077498714	0.75632171	0.031230028	0.042175571	0.76923907	0.43520599	-0.17418701	0.86696359	0.45327384	0.11549271	0.80156014	0.39654019	-0.058961664	0.85703965	0.45850036	-0.013820973	0.73386891	0.81212317	-0.19502388	0.82963541	0.87150255	0.17049166	0.80306879	0.9276718	-0.16283773	0.87324709	0.95950208	0.072957298	0.64770692	0.95146711	0.012864623	0.72797324	1.4172219	-0.18484029	0.75262159	1.4109417	0.13907398	0.65359037	1.4335867	-0.020818878	0.72277037	1.070592	-0.23664415	0.66140384	1.0810076	0.19294225	0.92775928	0.92912704	-0.24892105	0.73607928	0.87187911	0.29099086
348	1.388	0.50552944	0.09247436	-0.11486166	0.95051502	0.038762817	0.0387926	0.47366539	0.22578672	-0.13107521	0.80889477	0.054241856	0.084732818	0.50706267	0.22091125	-0.052581087	0.82489802	0.081701571	0.00035299897	0.42379474	0.26255207	-0.077218319	0.75637134	0.031491786	0.042034338	0.78133038	0.43735033	-0.17339103	0.86783977	0.45343166	0.11589243	0.81394528	0.39918349	-0.058017509	0.85788554	0.45858935	-0.013442889	0.74088563	0.81410777	-0.19533185	0.83427745	0.87190053	0.17054141	0.80954829	0.93009295	-0.16257576	0.87846357	0.96085455	0.073536232	0.65534204	0.95311664	0.014135427	0.73358784	1.4189457	-0.18471709	0.75810177	1.4126515	0.1392567	0.65934257	1.4352299	-0.02069433	0.72620134	1.0722258	-0.23623455	0.66908463	1.082116	0.19430629	0.9289658	0.9278899	-0.24961494	0.74831532	0.87345059	0.2901972
349	1.392	0.52284274	0.092319263	-0.11417796	0.95052106	0.038766621	0.038819785	0.48789665	0.22473208	-0.13048317	0.80883589	0.054427822	0.08469637	0.52107151	0.22067686	-0.051774221	0.82497801	0.081886267	0.00035516975	0.43680276	0.26048761	-0.076961847	0.75646933	0.031762138	0.041828009	0.79335673	0.43957029	-0.17258888	0.86871097	0.45357602	0.11629005	0.82621631	0.40191021	-0.057065998	0.85857317	0.45870254	-0.013017531	0.74796019	0.81603623	-0.19568338	0.83883338	0.87228957	0.17060462	0.8160321	0.93251402	-0.16220338	0.88363778	0.9621203	0.074191029	0.6633764	0.95474996	0.015783359	0.73920972	1.4206254	-0.18460709	0.76353817	1.4143305	0.13943189	0.66501432	1.4368449	-0.020553054	0.72959867	1.0738464	-0.2358526	0.67643908	1.0829972	0.19568576	0.93005852	0.92666877	-0.25034294	0.76054402	0.87508917	0.28934945
350	1.396	0.54038567	0.092039195	-0.11344448	0.95054019	0.038770542	0.038843464	0.50225199	0.22342081	-0.12988267	0.80861754	0.054642759	0.08472461	0.53520313	0.2202366	-0.050987668	0.82507546	0.082076946	0.00035754442	0.4499299	0.25810124	-0.076780181	0.75655713	0.032008846	0.041640225	0.80531109	0.4418552	-0.171766	0.86955499	0.45371262	0.11669644	0.83824651	0.4047325	-0.056079692	0.85900953	0.4588464	-0.012496658	0.75502755	0.81791044	-0.19621215	0.84335587	0.87266187	0.17071895	0.82258913	0.93492272	-0.16171983	0.88883121	0.96324234	0.074900974	0.67080647	0.9563539	0.016891068	0.74483774	1.4222692	-0.18449751	0.7689355	1.4159686	0.13960368	0.6705958	1.4384655	-0.020385337	0.73298655	1.075539	-0.23555234	0.68337452	1.0835249	0.19714222	0.93108458	0.92546387	-0.25109349	0.77274921	0.87679877	0.28844594
351	1.4	0.55811467	0.091640099	-0.11264205	0.95057602	0.038778003	0.038866306	0.51680934	0.22183092	-0.12933398	0.80830466	0.054870768	0.084798704	0.54948036	0.2195723	-0.050258148	0.82518763	0.082272826	0.00036567919	0.46317523	0.25541648	-0.076603375	0.75660045	0.032221003	0.041512655	0.81718415	0.44419788	-0.17091368	0.87036732	0.45384592	0.11711996	0.84988475	0.40765888	-0.055017854	0.85935161	0.45901053	-0.011873996	0.7620721	0.81974339	-0.19702191	0.84783823	0.87301165	0.17088569	0.82940039	0.93731422	-0.16112923	0.8940396	0.96420561	0.075677239	0.67711385	0.95790082	0.016971744	0.75046869	1.4238664	-0.18438112	0.77430188	1.417556	0.13977854	0.67613981	1.440074	-0.020188905	0.73637274	1.0772992	-0.23535275	0.68996916	1.0838306	0.1986777	0.93203311	0.92427542	-0.25188683	0.7849325	0.87857994	0.28749661
352	1.404	0.57600671	0.091131336	-0.11177162	0.95062599	0.038789828	0.038892326	0.5315564	0.21997767	-0.12883268	0.80804391	0.05509264	0.084867022	0.56391059	0.21867931	-0.049598631	0.82530834	0.082478138	0.00038023025	0.47650662	0.25243964	-0.076283184	0.75661321	0.032411048	0.041419231	0.82897121	0.44659557	-0.17003868	0.87115424	0.4539795	0.11756745	0.86113574	0.41066444	-0.053880741	0.85992218	0.45916149	-0.011208515	0.76917331	0.82155519	-0.19804765	0.85225323	0.87333613	0.17108754	0.83652852	0.93966744	-0.16044696	0.89924161	0.96503045	0.076525628	0.68246489	0.95933136	0.016178983	0.75610817	1.4254003	-0.18425564	0.77964176	1.4190886	0.13995744	0.68171645	1.441607	-0.019942478	0.73973237	1.0790464	-0.23529317	0.69651322	1.0842033	0.20017715	0.93282301	0.9230986	-0.25276687	0.79711266	0.88042595	0.28651239
353	1.408	0.59406223	0.090514201	-0.11084599	0.95068241	0.038803409	0.038922787	0.54638036	0.21791208	-0.12829426	0.80791462	0.055301295	0.084899173	0.57845555	0.21757439	-0.048957598	0.82543422	0.082700469	0.00040010705	0.48992108	0.24917454	-0.075779665	0.7566227	0.032600981	0.041324213	0.84065793	0.44904069	-0.16913374	0.87192017	0.45411687	0.11803904	0.87219499	0.41369641	-0.052735834	0.86064042	0.45929299	-0.010609363	0.77642403	0.8233526	-0.19905981	0.85658884	0.87363245	0.17131213	0.84364759	0.94192662	-0.15971889	0.9044252	0.96574404	0.077440585	0.68733702	0.96057257	0.015023571	0.76176967	1.4268618	-0.18412208	0.78495486	1.4205668	0.14013446	0.68732988	1.443039	-0.019598179	0.74302703	1.0806876	-0.23542271	0.70327226	1.084789	0.20158228	0.93335238	0.92192606	-0.25375929	0.80931784	0.88233353	0.28550036
